<?xml version="1.0" encoding="iso-8859-1"?>
<!-- Generator: Adobe Illustrator 20.1.0, SVG Export Plug-In . SVG Version: 6.00 Build 0)  -->
<svg xmlns="http://www.w3.org/2000/svg" xmlns:xlink="http://www.w3.org/1999/xlink" version="1.1" id="&#1057;&#1083;&#1086;&#1081;_1" x="0px" y="0px" viewBox="0 0 64 64" style="enable-background:new 0 0 64 64;" xml:space="preserve">
<linearGradient id="SVGID_1__48346" gradientUnits="userSpaceOnUse" x1="15.2738" y1="49.5" x2="15.2738" y2="58.0586" spreadMethod="reflect">
	<stop offset="0" style="stop-color:#6DC7FF"/>
	<stop offset="1" style="stop-color:#E6ABFF"/>
</linearGradient>
<circle style="fill:url(#SVGID_1__48346);" cx="15.274" cy="53.807" r="4"/>
<linearGradient id="SVGID_2__48346" gradientUnits="userSpaceOnUse" x1="32.2374" y1="4.6623" x2="33.2374" y2="58.6623" spreadMethod="reflect">
	<stop offset="0" style="stop-color:#1A6DFF"/>
	<stop offset="1" style="stop-color:#C822FF"/>
</linearGradient>
<path style="fill:url(#SVGID_2__48346);" d="M50.275,30.712l-3.861-0.794c-0.394-0.081-0.705-0.372-0.812-0.761l-2.845-6.74  c-0.778-1.837-2.296-3.279-4.164-3.959l-3.123-1.136l-1.857-0.676c-2.468-0.9-5.228-0.383-7.205,1.347L13.826,29.005  c-1.272,1.114-1.402,3.056-0.289,4.328c0.54,0.617,1.287,0.986,2.104,1.041c0.07,0.005,0.139,0.007,0.208,0.007  c0.743,0,1.452-0.266,2.016-0.759l7.212-6.312l-6.521,17.917c-0.579,1.589,0.244,3.353,1.833,3.931  c0.771,0.282,1.603,0.244,2.346-0.102c0.743-0.347,1.306-0.961,1.586-1.731l3.547-9.744l2.005,0.73l-5.668,15.572  c-0.578,1.589,0.245,3.353,1.833,3.931C26.384,57.94,26.737,58,27.085,58c1.253,0,2.432-0.774,2.886-2.019l9.17-25.196l1.544,3.544  c0.433,0.958,1.313,1.619,2.353,1.769l6.157,0.891c0.834,0.125,1.658-0.098,2.323-0.615s1.079-1.264,1.167-2.101l0.025-0.237  C52.874,32.459,51.827,31.03,50.275,30.712z M16.549,32.116c-0.215,0.188-0.493,0.274-0.774,0.263  c-0.285-0.02-0.544-0.148-0.732-0.362c-0.388-0.443-0.342-1.119,0.101-1.506l12.583-11.013c0.125-0.109,0.26-0.203,0.393-0.299  c-0.14,0.248-0.272,0.502-0.371,0.776l-1.25,3.435L16.549,32.116z M50.695,34.063c-0.03,0.291-0.175,0.552-0.406,0.731  c-0.231,0.18-0.518,0.254-0.808,0.215l-6.158-0.892c-0.361-0.052-0.666-0.281-0.81-0.601l-3.539-8.121l-10.883,29.9  c-0.202,0.555-0.817,0.842-1.368,0.639c-0.553-0.201-0.839-0.815-0.639-1.368l6.352-17.451l-5.764-2.098l-4.23,11.623  c-0.098,0.268-0.294,0.481-0.552,0.602c-0.259,0.121-0.548,0.132-0.816,0.036c-0.553-0.201-0.839-0.815-0.638-1.368l9.192-25.253  c0.286-0.786,0.861-1.415,1.62-1.769c0.759-0.354,1.611-0.391,2.397-0.104l0.967,0.352l0.976,0.355l0,0l2.322,0.845  c1.349,0.491,2.444,1.533,3.006,2.859l2.778,6.559c0.324,1.084,1.206,1.894,2.318,2.122l3.861,0.794  c0.54,0.111,0.904,0.608,0.847,1.155L50.695,34.063z"/>
<linearGradient id="SVGID_3__48346" gradientUnits="userSpaceOnUse" x1="39.6066" y1="4.5258" x2="40.6066" y2="58.5258" spreadMethod="reflect">
	<stop offset="0" style="stop-color:#1A6DFF"/>
	<stop offset="1" style="stop-color:#C822FF"/>
</linearGradient>
<path style="fill:url(#SVGID_3__48346);" d="M37.972,15.96c0.578,0.211,1.169,0.311,1.751,0.311c2.098,0,4.071-1.296,4.83-3.379h0  c0.968-2.66-0.409-5.612-3.069-6.581c-2.661-0.97-5.612,0.408-6.58,3.069C33.936,12.039,35.312,14.991,37.972,15.96z M36.784,10.063  c0.462-1.271,1.668-2.063,2.949-2.063c0.355,0,0.716,0.061,1.068,0.188c1.625,0.592,2.465,2.395,1.874,4.019  c-0.592,1.624-2.393,2.46-4.017,1.873C37.033,13.489,36.193,11.688,36.784,10.063z"/>
</svg>
