<?xml version="1.0" encoding="iso-8859-1"?>
<!-- Generator: Adobe Illustrator 20.1.0, SVG Export Plug-In . SVG Version: 6.00 Build 0)  -->
<svg xmlns="http://www.w3.org/2000/svg" xmlns:xlink="http://www.w3.org/1999/xlink" version="1.1" id="&#1057;&#1083;&#1086;&#1081;_1" x="0px" y="0px" viewBox="0 0 64 64" style="enable-background:new 0 0 64 64;" xml:space="preserve">
<linearGradient id="SVGID_1__43664" gradientUnits="userSpaceOnUse" x1="32" y1="7.5" x2="32" y2="56.7525" spreadMethod="reflect">
	<stop offset="0" style="stop-color:#1A6DFF"/>
	<stop offset="1" style="stop-color:#C822FF"/>
</linearGradient>
<path style="fill:url(#SVGID_1__43664);" d="M32,56c-1.077,0-2.046-0.555-2.591-1.484l-3.694-6.314c-0.759-1.299-2.099-2.185-3.675-2.432  c-9.479-1.482-16.37-9.85-16.027-19.462C6.371,16.213,15.083,8,25.432,8h13.137c10.349,0,19.061,8.213,19.419,18.308  c0.343,9.611-6.549,17.979-16.028,19.462c-1.575,0.247-2.915,1.133-3.674,2.432l-3.694,6.313C34.046,55.445,33.077,56,32,56z   M25.432,10c-9.285,0-17.1,7.348-17.421,16.378C7.705,34.98,13.869,42.467,22.35,43.793c2.173,0.341,4.028,1.579,5.092,3.398  l3.694,6.313C31.397,53.952,31.827,54,32,54s0.603-0.048,0.864-0.496l3.694-6.313c1.063-1.819,2.919-3.058,5.091-3.398  c8.481-1.327,14.646-8.813,14.34-17.415C55.668,17.348,47.854,10,38.568,10H25.432z"/>
<linearGradient id="SVGID_2__43664" gradientUnits="userSpaceOnUse" x1="25" y1="21.5" x2="25" y2="28.5" spreadMethod="reflect">
	<stop offset="0" style="stop-color:#6DC7FF"/>
	<stop offset="1" style="stop-color:#E6ABFF"/>
</linearGradient>
<circle style="fill:url(#SVGID_2__43664);" cx="25" cy="24.998" r="3"/>
<linearGradient id="SVGID_3__43664" gradientUnits="userSpaceOnUse" x1="39" y1="21.5" x2="39" y2="28.5" spreadMethod="reflect">
	<stop offset="0" style="stop-color:#6DC7FF"/>
	<stop offset="1" style="stop-color:#E6ABFF"/>
</linearGradient>
<circle style="fill:url(#SVGID_3__43664);" cx="39" cy="24.998" r="3"/>
<linearGradient id="SVGID_4__43664" gradientUnits="userSpaceOnUse" x1="32" y1="29.625" x2="32" y2="37.375" spreadMethod="reflect">
	<stop offset="0" style="stop-color:#6DC7FF"/>
	<stop offset="1" style="stop-color:#E6ABFF"/>
</linearGradient>
<path style="fill:url(#SVGID_4__43664);" d="M36,30h-8c-0.552,0-1,0.446-1,0.998v1c0,2.761,2.239,5,5,5s5-2.239,5-5v-1  C37,30.446,36.552,30,36,30z"/>
<linearGradient id="SVGID_5__43664" gradientUnits="userSpaceOnUse" x1="32" y1="7.5" x2="32" y2="56.7525" spreadMethod="reflect">
	<stop offset="0" style="stop-color:#1A6DFF"/>
	<stop offset="1" style="stop-color:#C822FF"/>
</linearGradient>
<rect x="26" y="12" style="fill:url(#SVGID_5__43664);" width="12" height="2"/>
</svg>
