<svg xmlns="http://www.w3.org/2000/svg" viewBox="0 0 288.91 92.64"><title>AOA_logo</title><g id="Layer_2" data-name="Layer 2"><g id="Layer_1-2" data-name="Layer 1"><path d="M33.3,72.5H18l-4.3,20.14H0L18.8,5l6.85,32L20.81,59.21h9.53Z" fill="#231f20"/><path d="M90.23,12.35A13.37,13.37,0,0,0,78.41,25.64V65.92a12.35,12.35,0,0,0,1.34,5.91L90.09,92.51A26.54,26.54,0,0,1,65,65.92V25.64A26.87,26.87,0,0,1,84,0Z" fill="#231f20"/><path d="M156.55,72.5H141.25l-4.3,20.14H123.26L142.05,5l6.85,32-4.83,22.29h9.53Z" fill="#231f20"/><text transform="translate(174.07 56.79)" font-size="16.8" fill="#231f20" font-family="Lato-Heavy, Lato"><tspan letter-spacing="-0.01em">A</tspan><tspan x="11.57" y="0" letter-spacing="-0.01em">cc</tspan><tspan x="27.53" y="0">essibilit</tspan><tspan x="84.7" y="0" letter-spacing="-0.02em">y</tspan><tspan x="0" y="15.12" letter-spacing="-0.01em">O</tspan><tspan x="13.49" y="15.12">pen</tspan><tspan x="41.61" y="15.12" letter-spacing="-0.03em"> </tspan><tspan x="45.03" y="15.12" letter-spacing="-0.01em">A</tspan><tspan x="56.6" y="15.12">cade</tspan><tspan x="91.93" y="15.12" letter-spacing="-0.01em">m</tspan><tspan x="105.85" y="15.12" letter-spacing="-0.02em">y</tspan></text></g></g></svg>