<?xml version="1.0" encoding="iso-8859-1"?>
<!-- Generator: Adobe Illustrator 20.1.0, SVG Export Plug-In . SVG Version: 6.00 Build 0)  -->
<svg xmlns="http://www.w3.org/2000/svg" xmlns:xlink="http://www.w3.org/1999/xlink" version="1.1" id="&#1057;&#1083;&#1086;&#1081;_1" x="0px" y="0px" viewBox="0 0 64 64" style="enable-background:new 0 0 64 64;" xml:space="preserve">
<linearGradient id="SVGID_1__49413" gradientUnits="userSpaceOnUse" x1="32" y1="5.6704" x2="32" y2="57.964" spreadMethod="reflect">
	<stop offset="0" style="stop-color:#1A6DFF"/>
	<stop offset="1" style="stop-color:#C822FF"/>
</linearGradient>
<path style="fill:url(#SVGID_1__49413);" d="M56.879,27.466c-1.697-2.011-4.719-2.275-6.741-0.588c-0.379,0.314-0.947,0.267-1.263-0.108  c-0.152-0.181-0.226-0.409-0.205-0.644c0.021-0.233,0.133-0.446,0.314-0.599l2.176-1.816c1.175-0.98,1.896-2.358,2.028-3.88  c0.133-1.52-0.336-3-1.321-4.168c-2.032-2.409-5.654-2.723-8.074-0.703l-2.177,1.816c-0.379,0.314-0.944,0.267-1.262-0.109  c-0.152-0.181-0.225-0.408-0.204-0.643c0.021-0.234,0.132-0.448,0.313-0.6c0.981-0.819,1.583-1.97,1.694-3.24  c0.111-1.269-0.281-2.505-1.104-3.48c-1.696-2.012-4.719-2.272-6.74-0.587L20.179,19.853c-2.637,0.682-5.169,1.919-7.391,3.774  c-3.89,3.247-6.274,7.807-6.715,12.839c-0.439,5.026,1.113,9.923,4.373,13.787c3.751,4.447,9.138,6.74,14.561,6.74  c4.308,0,8.638-1.447,12.189-4.411c2.273-1.897,4.011-4.254,5.168-6.881l13.924-11.516c0.98-0.818,1.582-1.969,1.693-3.239  C58.093,29.677,57.701,28.441,56.879,27.466z M24.979,21.215c0.576,0,1.151,0.034,1.725,0.091c-0.31,4.212-2.181,8.117-5.275,11.022  l-6.558-7.775C17.888,22.321,21.438,21.215,24.979,21.215z M28.696,21.627c3.211,0.71,6.223,2.364,8.621,4.887L25.115,36.7  l-2.38-2.822C26.203,30.66,28.309,26.311,28.696,21.627z M8.066,36.641c0.364-4.167,2.235-7.959,5.27-10.804l10.243,12.144  L11.371,48.173C8.883,44.851,7.702,40.801,8.066,36.641z M12.662,49.699l12.207-10.19l2.396,2.841  c-3.432,3.192-5.564,7.557-5.958,12.223C18.089,53.866,15.064,52.228,12.662,49.699z M23.282,54.898  c0.315-4.198,2.206-8.135,5.272-11.019l6.556,7.773C31.601,54.246,27.374,55.31,23.282,54.898z M41.917,39.569  c-0.364,4.167-2.235,7.958-5.27,10.804L30.092,42.6c3.417-2.527,7.613-3.68,11.834-3.25C41.92,39.424,41.924,39.496,41.917,39.569z   M28.785,41.05l-2.38-2.822l12.209-10.191c2.039,2.722,3.187,5.933,3.335,9.295C37.246,36.9,32.573,38.209,28.785,41.05z   M55.007,32.65L43.5,42.256c0.185-0.823,0.336-1.657,0.411-2.512c0.439-5.026-1.113-9.924-4.373-13.788  c-3.956-4.69-9.731-6.963-15.449-6.699l11.507-9.605c1.18-0.985,2.94-0.832,3.93,0.341c0.478,0.566,0.705,1.282,0.641,2.018  c-0.064,0.735-0.414,1.403-0.983,1.879c-0.594,0.496-0.957,1.192-1.024,1.961c-0.067,0.768,0.17,1.516,0.668,2.106  c1.024,1.213,2.85,1.374,4.072,0.354l2.177-1.816c1.578-1.319,3.94-1.111,5.263,0.457c0.64,0.759,0.944,1.719,0.858,2.705  s-0.555,1.881-1.317,2.518l-2.176,1.816c-0.594,0.495-0.958,1.191-1.025,1.96c-0.067,0.768,0.17,1.516,0.668,2.106  c1.026,1.216,2.852,1.374,4.073,0.354c1.182-0.983,2.943-0.829,3.93,0.342c0.477,0.565,0.704,1.282,0.64,2.017  C55.925,31.508,55.576,32.175,55.007,32.65z"/>
<linearGradient id="SVGID_2__49413" gradientUnits="userSpaceOnUse" x1="50.6741" y1="5.6704" x2="50.6741" y2="57.9641" spreadMethod="reflect">
	<stop offset="0" style="stop-color:#1A6DFF"/>
	<stop offset="1" style="stop-color:#C822FF"/>
</linearGradient>
<polygon style="fill:url(#SVGID_2__49413);" points="48.22,33.397 49.501,34.932 53.128,31.905 51.847,30.37 "/>
<linearGradient id="SVGID_3__49413" gradientUnits="userSpaceOnUse" x1="44.2128" y1="5.6704" x2="44.2128" y2="57.9641" spreadMethod="reflect">
	<stop offset="0" style="stop-color:#1A6DFF"/>
	<stop offset="1" style="stop-color:#C822FF"/>
</linearGradient>
<polygon style="fill:url(#SVGID_3__49413);" points="46.836,18.568 40.308,24.017 41.589,25.552 48.118,20.103 "/>
<linearGradient id="SVGID_4__49413" gradientUnits="userSpaceOnUse" x1="34.8504" y1="5.6704" x2="34.8504" y2="57.9641" spreadMethod="reflect">
	<stop offset="0" style="stop-color:#1A6DFF"/>
	<stop offset="1" style="stop-color:#C822FF"/>
</linearGradient>
<polygon style="fill:url(#SVGID_4__49413);" points="32.396,14.636 33.678,16.171 37.304,13.144 36.023,11.609 "/>
<linearGradient id="SVGID_5__49413" gradientUnits="userSpaceOnUse" x1="15.4161" y1="26.878" x2="15.4161" y2="45.7789" spreadMethod="reflect">
	<stop offset="0" style="stop-color:#6DC7FF"/>
	<stop offset="1" style="stop-color:#E6ABFF"/>
</linearGradient>
<path style="fill:url(#SVGID_5__49413);" d="M13.249,28.578l7.742,9.178l-9.226,7.701C8.736,40.08,9.327,33.352,13.249,28.578z"/>
</svg>
