<?xml version="1.0" encoding="iso-8859-1"?>
<!-- Generator: Adobe Illustrator 20.1.0, SVG Export Plug-In . SVG Version: 6.00 Build 0)  -->
<svg xmlns="http://www.w3.org/2000/svg" xmlns:xlink="http://www.w3.org/1999/xlink" version="1.1" id="&#1057;&#1083;&#1086;&#1081;_1" x="0px" y="0px" viewBox="0 0 64 64" style="enable-background:new 0 0 64 64;" xml:space="preserve">
<linearGradient id="SVGID_1__43652" gradientUnits="userSpaceOnUse" x1="40.0578" y1="8.5833" x2="40.0578" y2="17.3337" spreadMethod="reflect">
	<stop offset="0" style="stop-color:#6DC7FF"/>
	<stop offset="1" style="stop-color:#E6ABFF"/>
</linearGradient>
<ellipse style="fill:url(#SVGID_1__43652);" cx="40.058" cy="13" rx="4.008" ry="4"/>
<linearGradient id="SVGID_2__43652" gradientUnits="userSpaceOnUse" x1="34" y1="6.5" x2="34" y2="60.8643" spreadMethod="reflect">
	<stop offset="0" style="stop-color:#1A6DFF"/>
	<stop offset="1" style="stop-color:#C822FF"/>
</linearGradient>
<path style="fill:url(#SVGID_2__43652);" d="M56.087,22.6L56.087,22.6c-1.002-1.763-3.743-2.123-5.512-0.8l-3.79,2.877  c-0.794,0.592-1.896,0.513-2.599-0.187l-2.795-2.802c-0.987-0.985-2.127-1.862-3.813-1.671c-0.147,0.018-0.283,0.068-0.426,0.102  l-0.003-0.018l-9.435,2.174c-3.688,0.85-6.549,3.654-7.469,7.321l-1.109,4.433c-0.26,1.037-0.1,2.112,0.451,3.028  c0.551,0.917,1.426,1.563,2.463,1.822c0.317,0.08,0.645,0.12,0.976,0.12c1.842,0,3.44-1.246,3.885-3.03l1.111-4.433  c0.184-0.734,0.757-1.296,1.496-1.466l3.307-0.762c-0.365,1.809-0.786,3.975-1.279,6.576c-0.108,0.572-0.191,1.012-0.24,1.264  l-5.077,5.716c-0.467,0.523-1.133,0.758-1.823,0.645l-8.745-1.455c-2.168-0.358-4.244,1.116-4.607,3.288  c-0.364,2.175,1.114,4.239,3.295,4.603l8.746,1.455c0.551,0.092,1.112,0.139,1.668,0.139c2.845,0,5.568-1.225,7.469-3.359  c1.703-1.912,2.908-3.265,3.768-4.231l5.386,2.687c0.405,0.202,0.734,0.54,0.906,0.911l4.143,10.13  C47.091,59.088,48.52,60,50.078,60c0.581,0,1.146-0.124,1.678-0.368c2.006-0.925,2.884-3.306,1.977-5.268L49.59,44.235  c-0.951-2.055-2.59-3.744-4.616-4.755l-5.395-2.693l1.017-5.073c1.52,0.876,3.265,1.348,5.048,1.348  c2.191,0,4.266-0.687,6.002-1.986l3.742-2.876C57.154,26.877,57.59,24.364,56.087,22.6z M29.069,28.122  c-1.476,0.34-2.622,1.463-2.989,2.931l-1.111,4.433c-0.261,1.052-1.383,1.711-2.429,1.455c-0.52-0.13-0.957-0.453-1.232-0.911  c-0.276-0.458-0.355-0.996-0.226-1.515l1.11-4.433c0.736-2.934,3.026-5.178,5.976-5.857l6.142-1.415  c-0.261,0.853-0.598,2.26-1.038,4.345L29.069,28.122z M44.077,41.27c1.621,0.809,2.932,2.16,3.675,3.763l4.144,10.129  c0.463,1.002,0.023,2.192-0.978,2.654c-0.984,0.449-2.219-0.024-2.643-0.937L44.132,46.75c-0.381-0.823-1.037-1.499-1.848-1.903  L37.38,42.4c0.371-0.418,0.562-0.635,0.66-0.748l0.005,0.004c0.163-0.182,0.315-0.391,0.453-0.623  c0.034-0.058,0.063-0.117,0.106-0.207c0.074-0.146,0.146-0.294,0.207-0.46c0.03-0.085,0.055-0.171,0.1-0.332  c0.027-0.085,0.053-0.17,0.068-0.249l0.193-0.963L44.077,41.27z M54.285,26.601l-3.842,2.876c-1.386,1.037-3.046,1.586-4.8,1.586  c-1.864,0-3.674-0.641-5.097-1.805l-1.291-1.056l-2.25,11.209l-0.077,0.268c-0.03,0.081-0.068,0.157-0.106,0.229l-0.052,0.11  c-0.065,0.107-0.136,0.21-0.219,0.303l-0.065,0.073c-0.134,0.151-0.493,0.554-0.961,1.08l-0.031-0.015l-0.057,0.115  c-1.685,1.892-4.7,5.278-4.7,5.278c-1.82,2.042-4.605,3.029-7.311,2.576l-8.747-1.455c-1.09-0.182-1.83-1.214-1.648-2.302  c0.163-0.976,1.016-1.67,1.977-1.67c0.108,0,0.217,0.009,0.327,0.026l8.744,1.455c1.365,0.229,2.729-0.256,3.649-1.29l5.258-5.919  c0.189-0.215,0.189-0.215,0.53-2.016c1.547-8.167,2.512-12.656,2.858-13.326c0.307-0.503,0.862-0.858,1.448-0.928  c0.799-0.095,1.398,0.333,2.165,1.099l2.807,2.802c1.404,1.399,3.655,1.558,5.243,0.372l3.84-2.876  c0.885-0.662,2.145-0.482,2.807,0.398C55.349,24.682,55.169,25.938,54.285,26.601z"/>
<linearGradient id="SVGID_3__43652" gradientUnits="userSpaceOnUse" x1="40.0578" y1="6.5" x2="40.0578" y2="60.8643" spreadMethod="reflect">
	<stop offset="0" style="stop-color:#1A6DFF"/>
	<stop offset="1" style="stop-color:#C822FF"/>
</linearGradient>
<path style="fill:url(#SVGID_3__43652);" d="M40.058,18c2.762,0,5.01-2.243,5.01-5s-2.247-5-5.01-5s-5.01,2.243-5.01,5  S37.296,18,40.058,18z M40.058,10c1.657,0,3.006,1.346,3.006,3s-1.348,3-3.006,3c-1.657,0-3.006-1.346-3.006-3S38.4,10,40.058,10z"/>
</svg>
