<svg xmlns="http://www.w3.org/2000/svg" viewBox="0 0 288.91 92.64"><title>AOA_logo</title><g id="Layer_2" data-name="Layer 2"><g id="Layer_1-2" data-name="Layer 1"><path d="M33.3,72.5H18l-4.3,20.14H0L18.8,5l6.85,32L20.81,59.21h9.53Z" fill="#231f20"/><path d="M90.23,12.35A13.37,13.37,0,0,0,78.41,25.64V65.92a12.35,12.35,0,0,0,1.34,5.91L90.09,92.51A26.54,26.54,0,0,1,65,65.92V25.64A26.87,26.87,0,0,1,84,0Z" fill="#231f20"/><path d="M156.55,72.5H141.25l-4.3,20.14H123.26L142.05,5l6.85,32-4.83,22.29h9.53Z" fill="#231f20"/><path d="M186,56.79h-2a.87.87,0,0,1-.53-.16,1,1,0,0,1-.31-.4l-.82-2.33h-4.86l-.82,2.33a1,1,0,0,1-.29.38.8.8,0,0,1-.53.17h-2l4.76-12.19h2.58Zm-7.86-4.63h3.63l-1.32-3.73q-.12-.29-.25-.69t-.26-.85q-.12.46-.24.86t-.24.69Z" fill="#231f20"/><path d="M192.88,50.06a.94.94,0,0,1-.2.21.49.49,0,0,1-.29.07.6.6,0,0,1-.32-.1l-.36-.21a2.88,2.88,0,0,0-.48-.21,2.11,2.11,0,0,0-.69-.1,2,2,0,0,0-.9.19,1.7,1.7,0,0,0-.63.54,2.48,2.48,0,0,0-.37.86,4.85,4.85,0,0,0-.12,1.13,3.32,3.32,0,0,0,.53,2,1.73,1.73,0,0,0,1.46.71,2.5,2.5,0,0,0,.55-.05,2.06,2.06,0,0,0,.4-.14,1.61,1.61,0,0,0,.3-.19l.24-.18.23-.14a.59.59,0,0,1,.26-.05.5.5,0,0,1,.42.2l.66.84a4,4,0,0,1-.79.71,4,4,0,0,1-.87.45,4.3,4.3,0,0,1-.91.23,6.61,6.61,0,0,1-.92.06,3.89,3.89,0,0,1-1.51-.3,3.61,3.61,0,0,1-1.25-.87,4.19,4.19,0,0,1-.85-1.4,5.35,5.35,0,0,1-.31-1.9,5.42,5.42,0,0,1,.28-1.76,4,4,0,0,1,.81-1.41,3.76,3.76,0,0,1,1.33-.94A4.61,4.61,0,0,1,190.4,48a4.4,4.4,0,0,1,1.74.32,4.18,4.18,0,0,1,1.34.92Z" fill="#231f20"/><path d="M200.86,50.06a1,1,0,0,1-.2.21.49.49,0,0,1-.29.07.6.6,0,0,1-.32-.1l-.36-.21a3,3,0,0,0-.48-.21,2.11,2.11,0,0,0-.69-.1,2,2,0,0,0-.9.19,1.7,1.7,0,0,0-.63.54,2.46,2.46,0,0,0-.37.86,4.79,4.79,0,0,0-.12,1.13,3.32,3.32,0,0,0,.53,2,1.73,1.73,0,0,0,1.46.71,2.49,2.49,0,0,0,.55-.05,2.09,2.09,0,0,0,.4-.14,1.6,1.6,0,0,0,.3-.19l.24-.18.23-.14a.59.59,0,0,1,.26-.05.5.5,0,0,1,.42.2l.66.84a4,4,0,0,1-.79.71,4.09,4.09,0,0,1-.87.45,4.31,4.31,0,0,1-.91.23,6.61,6.61,0,0,1-.92.06,3.9,3.9,0,0,1-1.51-.3,3.63,3.63,0,0,1-1.25-.87,4.19,4.19,0,0,1-.85-1.4,5.33,5.33,0,0,1-.31-1.9,5.42,5.42,0,0,1,.28-1.76,4,4,0,0,1,.81-1.41,3.74,3.74,0,0,1,1.33-.94,4.61,4.61,0,0,1,1.83-.34,4.4,4.4,0,0,1,1.74.32,4.17,4.17,0,0,1,1.34.92Z" fill="#231f20"/><path d="M206.31,48a4.31,4.31,0,0,1,1.53.27,3.39,3.39,0,0,1,1.21.77,3.46,3.46,0,0,1,.79,1.24,4.67,4.67,0,0,1,.28,1.68,3,3,0,0,1,0,.43.76.76,0,0,1-.08.27.31.31,0,0,1-.16.14.78.78,0,0,1-.26,0h-5.2a2.74,2.74,0,0,0,.69,1.78,2.11,2.11,0,0,0,1.53.56,2.7,2.7,0,0,0,.83-.11,3.94,3.94,0,0,0,.61-.25l.48-.25a.9.9,0,0,1,.42-.11.5.5,0,0,1,.42.2l.67.84a3.65,3.65,0,0,1-.81.71,4.41,4.41,0,0,1-.92.45,4.87,4.87,0,0,1-1,.23,7.17,7.17,0,0,1-.94.06,4.74,4.74,0,0,1-1.69-.3,3.84,3.84,0,0,1-1.37-.88,4.12,4.12,0,0,1-.92-1.45,5.51,5.51,0,0,1-.34-2,4.76,4.76,0,0,1,.29-1.66,3.9,3.9,0,0,1,2.16-2.28A4.36,4.36,0,0,1,206.31,48Zm0,1.63a1.75,1.75,0,0,0-1.3.47,2.39,2.39,0,0,0-.61,1.34H208a2.45,2.45,0,0,0-.1-.69,1.62,1.62,0,0,0-.31-.58,1.49,1.49,0,0,0-.53-.4A1.83,1.83,0,0,0,206.35,49.62Z" fill="#231f20"/><path d="M216.95,49.91a.67.67,0,0,1-.19.21.48.48,0,0,1-.27.06.8.8,0,0,1-.34-.08l-.39-.18a4.24,4.24,0,0,0-.5-.18,2.29,2.29,0,0,0-.65-.08,1.44,1.44,0,0,0-.87.23.72.72,0,0,0-.31.61.59.59,0,0,0,.18.44,1.54,1.54,0,0,0,.47.31,5.74,5.74,0,0,0,.66.24l.76.25a7.16,7.16,0,0,1,.76.31,2.65,2.65,0,0,1,.66.44,2,2,0,0,1,.47.64,2.09,2.09,0,0,1,.18.9,2.91,2.91,0,0,1-.23,1.16,2.53,2.53,0,0,1-.68.92,3.19,3.19,0,0,1-1.11.61,5.24,5.24,0,0,1-2.41.14,4.83,4.83,0,0,1-.83-.23,5.24,5.24,0,0,1-.74-.34,3.35,3.35,0,0,1-.6-.42l.54-.87a.62.62,0,0,1,.59-.32.74.74,0,0,1,.39.11l.39.23a3.23,3.23,0,0,0,.52.23,2.25,2.25,0,0,0,.74.11,2,2,0,0,0,.58-.08,1.08,1.08,0,0,0,.39-.21.82.82,0,0,0,.22-.29.86.86,0,0,0,.07-.34.63.63,0,0,0-.18-.47,1.63,1.63,0,0,0-.47-.32,4.8,4.8,0,0,0-.67-.24l-.77-.24a6.52,6.52,0,0,1-.76-.32,2.62,2.62,0,0,1-.66-.47,2.16,2.16,0,0,1-.47-.69,2.47,2.47,0,0,1-.18-1,2.53,2.53,0,0,1,.21-1,2.4,2.4,0,0,1,.63-.85,3.13,3.13,0,0,1,1-.59,4.4,4.4,0,0,1,1.45-.22,4.5,4.5,0,0,1,1.68.3,3.65,3.65,0,0,1,1.24.79Z" fill="#231f20"/><path d="M224.38,49.91a.67.67,0,0,1-.19.21.48.48,0,0,1-.27.06.8.8,0,0,1-.34-.08l-.39-.18a4.24,4.24,0,0,0-.5-.18,2.29,2.29,0,0,0-.65-.08,1.44,1.44,0,0,0-.87.23.72.72,0,0,0-.31.61.59.59,0,0,0,.18.44,1.54,1.54,0,0,0,.47.31,5.74,5.74,0,0,0,.66.24l.76.25a7.16,7.16,0,0,1,.76.31,2.65,2.65,0,0,1,.66.44,2,2,0,0,1,.47.64,2.09,2.09,0,0,1,.18.9,2.91,2.91,0,0,1-.23,1.16,2.53,2.53,0,0,1-.68.92,3.19,3.19,0,0,1-1.11.61,5.24,5.24,0,0,1-2.41.14,4.83,4.83,0,0,1-.83-.23,5.24,5.24,0,0,1-.74-.34,3.35,3.35,0,0,1-.6-.42l.54-.87a.62.62,0,0,1,.59-.32.74.74,0,0,1,.39.11l.39.23a3.23,3.23,0,0,0,.52.23,2.25,2.25,0,0,0,.74.11,2,2,0,0,0,.58-.08,1.08,1.08,0,0,0,.39-.21.82.82,0,0,0,.22-.29.86.86,0,0,0,.07-.34.63.63,0,0,0-.18-.47,1.63,1.63,0,0,0-.47-.32,4.8,4.8,0,0,0-.67-.24l-.77-.24a6.52,6.52,0,0,1-.76-.32,2.62,2.62,0,0,1-.66-.47,2.16,2.16,0,0,1-.47-.69,2.47,2.47,0,0,1-.18-1,2.53,2.53,0,0,1,.21-1,2.4,2.4,0,0,1,.63-.85,3.13,3.13,0,0,1,1-.59A4.4,4.4,0,0,1,222,48a4.5,4.5,0,0,1,1.68.3,3.65,3.65,0,0,1,1.24.79Z" fill="#231f20"/><path d="M229.09,45.67a1.28,1.28,0,0,1-.12.55,1.51,1.51,0,0,1-.32.45,1.43,1.43,0,0,1-.46.3,1.46,1.46,0,0,1-.57.11,1.37,1.37,0,0,1-.54-.11,1.41,1.41,0,0,1-.45-.3,1.5,1.5,0,0,1-.31-.45,1.32,1.32,0,0,1-.11-.55,1.36,1.36,0,0,1,.11-.55,1.49,1.49,0,0,1,.31-.45,1.45,1.45,0,0,1,.45-.3,1.38,1.38,0,0,1,.54-.11,1.45,1.45,0,0,1,1,.41,1.5,1.5,0,0,1,.32.45A1.32,1.32,0,0,1,229.09,45.67Zm-.28,2.46v8.66H226.5V48.13Z" fill="#231f20"/><path d="M230.8,56.79V44.26h2.32v4.86a4.4,4.4,0,0,1,1.13-.82,3.07,3.07,0,0,1,1.4-.31,3,3,0,0,1,1.35.3,2.91,2.91,0,0,1,1,.85,4.09,4.09,0,0,1,.66,1.34,6.22,6.22,0,0,1,.23,1.76,6.51,6.51,0,0,1-.26,1.91,4.47,4.47,0,0,1-.75,1.47,3.41,3.41,0,0,1-1.16.95,3.35,3.35,0,0,1-1.51.34,3,3,0,0,1-.72-.08,2.64,2.64,0,0,1-.59-.22,2.67,2.67,0,0,1-.5-.34,3.82,3.82,0,0,1-.43-.44l-.09.52a.56.56,0,0,1-.19.34.61.61,0,0,1-.36.1Zm4-7a1.77,1.77,0,0,0-.94.24,3.2,3.2,0,0,0-.78.7v3.8a1.85,1.85,0,0,0,.71.53,2.12,2.12,0,0,0,.79.15,1.89,1.89,0,0,0,.78-.16,1.5,1.5,0,0,0,.6-.5,2.47,2.47,0,0,0,.39-.89,5.58,5.58,0,0,0,.13-1.32,5.42,5.42,0,0,0-.11-1.17,2.27,2.27,0,0,0-.32-.79,1.28,1.28,0,0,0-.52-.45A1.71,1.71,0,0,0,234.84,49.77Z" fill="#231f20"/><path d="M243.05,45.67a1.27,1.27,0,0,1-.12.55,1.5,1.5,0,0,1-.31.45,1.41,1.41,0,0,1-.46.3,1.46,1.46,0,0,1-.57.11A1.36,1.36,0,0,1,241,47a1.4,1.4,0,0,1-.45-.3,1.48,1.48,0,0,1-.31-.45,1.31,1.31,0,0,1-.11-.55,1.34,1.34,0,0,1,.11-.55,1.47,1.47,0,0,1,.31-.45,1.43,1.43,0,0,1,.45-.3,1.37,1.37,0,0,1,.54-.11,1.48,1.48,0,0,1,.57.11,1.45,1.45,0,0,1,.46.3,1.5,1.5,0,0,1,.31.45A1.3,1.3,0,0,1,243.05,45.67Zm-.28,2.46v8.66h-2.32V48.13Z" fill="#231f20"/><path d="M247.09,44.26V56.79h-2.32V44.26Z" fill="#231f20"/><path d="M251.69,45.67a1.27,1.27,0,0,1-.12.55,1.5,1.5,0,0,1-.31.45,1.41,1.41,0,0,1-.46.3,1.46,1.46,0,0,1-.57.11,1.36,1.36,0,0,1-.54-.11,1.4,1.4,0,0,1-.45-.3,1.48,1.48,0,0,1-.31-.45,1.31,1.31,0,0,1-.11-.55,1.34,1.34,0,0,1,.11-.55,1.47,1.47,0,0,1,.31-.45,1.43,1.43,0,0,1,.45-.3,1.37,1.37,0,0,1,.54-.11,1.48,1.48,0,0,1,.57.11,1.45,1.45,0,0,1,.46.3,1.5,1.5,0,0,1,.31.45A1.3,1.3,0,0,1,251.69,45.67Zm-.28,2.46v8.66h-2.32V48.13Z" fill="#231f20"/><path d="M256.38,56.92a2.94,2.94,0,0,1-1-.17,2,2,0,0,1-1.23-1.26,3.07,3.07,0,0,1-.16-1V49.79h-.81a.43.43,0,0,1-.45-.47v-.91l1.39-.25.47-2.24a.47.47,0,0,1,.51-.38h1.21v2.64h2.23v1.61h-2.23v4.52a.88.88,0,0,0,.17.57.6.6,0,0,0,.49.21.93.93,0,0,0,.29,0l.2-.08.16-.08a.31.31,0,0,1,.15,0,.29.29,0,0,1,.17,0A.52.52,0,0,1,258,55l.7,1.11a3.39,3.39,0,0,1-1.08.57A4.08,4.08,0,0,1,256.38,56.92Z" fill="#231f20"/><path d="M263.09,59.11a.92.92,0,0,1-.27.35.82.82,0,0,1-.49.12h-1.72l1.64-3.49-3.48-8h2a.65.65,0,0,1,.43.13.74.74,0,0,1,.22.29l1.65,4.14q.18.5.3,1,.08-.25.16-.5l.18-.49,1.53-4.13a.61.61,0,0,1,.24-.3.68.68,0,0,1,.39-.12h1.86Z" fill="#231f20"/><path d="M187.13,65.81a6.71,6.71,0,0,1-.45,2.48,5.81,5.81,0,0,1-1.27,2,5.87,5.87,0,0,1-2,1.31,7.11,7.11,0,0,1-5.11,0,5.9,5.9,0,0,1-2-1.31,5.78,5.78,0,0,1-1.27-2,7,7,0,0,1,0-5,5.79,5.79,0,0,1,1.27-2,5.92,5.92,0,0,1,2-1.31,7.11,7.11,0,0,1,5.11,0,5.75,5.75,0,0,1,3.24,3.28A6.65,6.65,0,0,1,187.13,65.81Zm-2.58,0a5.44,5.44,0,0,0-.25-1.72,3.64,3.64,0,0,0-.73-1.29,3.13,3.13,0,0,0-1.15-.81,4.32,4.32,0,0,0-3.07,0,3.11,3.11,0,0,0-1.16.81,3.64,3.64,0,0,0-.73,1.29,6,6,0,0,0,0,3.44,3.59,3.59,0,0,0,.73,1.29,3.13,3.13,0,0,0,1.16.81,4.32,4.32,0,0,0,3.07,0,3.14,3.14,0,0,0,1.15-.81,3.59,3.59,0,0,0,.73-1.29A5.48,5.48,0,0,0,184.55,65.81Z" fill="#231f20"/><path d="M188.52,74.7V63.25h1.43a.56.56,0,0,1,.58.4l.18.73a5.19,5.19,0,0,1,.55-.52,3.57,3.57,0,0,1,.63-.41,3.39,3.39,0,0,1,.72-.27,3.45,3.45,0,0,1,.84-.1,2.78,2.78,0,0,1,1.28.3,2.86,2.86,0,0,1,1,.87,4.3,4.3,0,0,1,.66,1.39,6.88,6.88,0,0,1,.23,1.88,5.91,5.91,0,0,1-.26,1.8,4.43,4.43,0,0,1-.75,1.43,3.49,3.49,0,0,1-1.17.95,3.38,3.38,0,0,1-1.53.34,3,3,0,0,1-1.2-.21,3,3,0,0,1-.88-.57V74.7Zm4.13-9.82a2,2,0,0,0-1,.24,2.94,2.94,0,0,0-.79.7v3.8a1.85,1.85,0,0,0,.71.53,2.19,2.19,0,0,0,.82.15,1.79,1.79,0,0,0,.76-.16,1.52,1.52,0,0,0,.59-.5,2.51,2.51,0,0,0,.38-.87,5.16,5.16,0,0,0,.13-1.26,5.7,5.7,0,0,0-.11-1.23,2.46,2.46,0,0,0-.32-.82,1.23,1.23,0,0,0-.5-.45A1.53,1.53,0,0,0,192.65,64.88Z" fill="#231f20"/><path d="M201.87,63.11a4.32,4.32,0,0,1,1.53.26,3.41,3.41,0,0,1,1.21.77,3.47,3.47,0,0,1,.79,1.24,4.67,4.67,0,0,1,.28,1.68,2.87,2.87,0,0,1,0,.43.74.74,0,0,1-.08.27.3.3,0,0,1-.16.14.75.75,0,0,1-.26,0H200a2.73,2.73,0,0,0,.69,1.78,2.12,2.12,0,0,0,1.53.56,2.67,2.67,0,0,0,.83-.11,3.9,3.9,0,0,0,.61-.25l.48-.25a.91.91,0,0,1,.42-.11.5.5,0,0,1,.42.2l.67.84a3.68,3.68,0,0,1-.82.71,4.34,4.34,0,0,1-.92.45,4.93,4.93,0,0,1-1,.23A7.35,7.35,0,0,1,202,72a4.74,4.74,0,0,1-1.69-.3,3.84,3.84,0,0,1-1.37-.88A4.12,4.12,0,0,1,198,69.4a5.51,5.51,0,0,1-.34-2,4.74,4.74,0,0,1,.29-1.66,3.91,3.91,0,0,1,2.16-2.28A4.38,4.38,0,0,1,201.87,63.11Zm0,1.63a1.75,1.75,0,0,0-1.3.47,2.4,2.4,0,0,0-.61,1.34h3.61a2.45,2.45,0,0,0-.1-.69,1.61,1.61,0,0,0-.31-.58,1.48,1.48,0,0,0-.53-.4A1.81,1.81,0,0,0,201.91,64.74Z" fill="#231f20"/><path d="M207.12,71.91V63.25h1.43a.56.56,0,0,1,.58.4l.14.6a5.58,5.58,0,0,1,.54-.46,3.71,3.71,0,0,1,.6-.36,3.27,3.27,0,0,1,.68-.23,3.5,3.5,0,0,1,.79-.08,3.05,3.05,0,0,1,1.25.24,2.58,2.58,0,0,1,.92.68,3,3,0,0,1,.56,1,4.47,4.47,0,0,1,.19,1.33v5.5h-2.31v-5.5a1.69,1.69,0,0,0-.34-1.12,1.23,1.23,0,0,0-1-.4,2,2,0,0,0-.92.21,3.38,3.38,0,0,0-.81.58v6.22Z" fill="#231f20"/><path d="M231,71.91h-2a.86.86,0,0,1-.53-.16.93.93,0,0,1-.31-.4L227.43,69h-4.85l-.82,2.33a1,1,0,0,1-.29.38.81.81,0,0,1-.53.17h-2l4.76-12.19h2.58Zm-7.86-4.63h3.63l-1.32-3.73q-.12-.29-.25-.69c-.09-.26-.17-.55-.26-.85-.08.31-.16.59-.24.86s-.16.5-.24.69Z" fill="#231f20"/><path d="M237.91,65.18a.94.94,0,0,1-.2.21.48.48,0,0,1-.29.07.6.6,0,0,1-.32-.1l-.36-.21a3,3,0,0,0-.48-.21,2.11,2.11,0,0,0-.69-.1,2,2,0,0,0-.9.19,1.69,1.69,0,0,0-.63.54,2.44,2.44,0,0,0-.37.86,4.84,4.84,0,0,0-.12,1.13,3.33,3.33,0,0,0,.53,2,1.73,1.73,0,0,0,1.46.71,2.39,2.39,0,0,0,.55-.05,1.87,1.87,0,0,0,.4-.14,1.58,1.58,0,0,0,.3-.18l.24-.18a1.37,1.37,0,0,1,.23-.14.58.58,0,0,1,.26-.05.5.5,0,0,1,.42.2l.66.84a4,4,0,0,1-1.66,1.15A4.36,4.36,0,0,1,236,72a6.78,6.78,0,0,1-.92.06,3.89,3.89,0,0,1-1.51-.3,3.62,3.62,0,0,1-1.25-.87,4.16,4.16,0,0,1-.85-1.4,5.34,5.34,0,0,1-.32-1.9,5.45,5.45,0,0,1,.28-1.76,4,4,0,0,1,.81-1.41,3.76,3.76,0,0,1,1.33-.94,4.63,4.63,0,0,1,1.84-.34,4.4,4.4,0,0,1,1.74.32,4.2,4.2,0,0,1,1.34.92Z" fill="#231f20"/><path d="M245.49,71.91a1.07,1.07,0,0,1-.5-.09.68.68,0,0,1-.28-.39l-.18-.55a7.45,7.45,0,0,1-.63.5,3.69,3.69,0,0,1-.64.36,3.33,3.33,0,0,1-.71.22,4.15,4.15,0,0,1-.83.08,3.4,3.4,0,0,1-1-.15,2.28,2.28,0,0,1-.81-.45,2,2,0,0,1-.52-.74,2.65,2.65,0,0,1-.18-1,2.07,2.07,0,0,1,.24-1,2.38,2.38,0,0,1,.84-.87,5.38,5.38,0,0,1,1.58-.65,10.9,10.9,0,0,1,2.47-.29v-.45a1.75,1.75,0,0,0-.34-1.2,1.26,1.26,0,0,0-1-.38,2.42,2.42,0,0,0-.8.11,4,4,0,0,0-.56.24l-.45.24a1,1,0,0,1-.49.11.67.67,0,0,1-.41-.12,1.12,1.12,0,0,1-.27-.29l-.41-.74a5.2,5.2,0,0,1,1.69-1,5.75,5.75,0,0,1,2-.34,3.59,3.59,0,0,1,1.38.25,3,3,0,0,1,1,.7,3.06,3.06,0,0,1,.65,1.07,3.91,3.91,0,0,1,.23,1.36v5.44Zm-3-1.43a2.28,2.28,0,0,0,1-.21,3.07,3.07,0,0,0,.85-.63V68.29a9.53,9.53,0,0,0-1.41.14,3.59,3.59,0,0,0-.89.27,1.16,1.16,0,0,0-.47.38.85.85,0,0,0-.14.47.84.84,0,0,0,.28.71A1.29,1.29,0,0,0,242.44,70.48Z" fill="#231f20"/><path d="M254.6,71.91a.54.54,0,0,1-.57-.4l-.19-.76a4.44,4.44,0,0,1-1.18.93,3.22,3.22,0,0,1-1.56.36,2.78,2.78,0,0,1-1.28-.29,2.88,2.88,0,0,1-1-.86,4.22,4.22,0,0,1-.66-1.39,6.88,6.88,0,0,1-.23-1.88,5.92,5.92,0,0,1,.26-1.8,4.4,4.4,0,0,1,.75-1.44,3.5,3.5,0,0,1,1.18-.95,3.37,3.37,0,0,1,1.53-.34,3,3,0,0,1,1.19.21,3.19,3.19,0,0,1,.88.57V59.38H256V71.91Zm-2.71-1.67a2,2,0,0,0,1-.24,2.91,2.91,0,0,0,.79-.69V65.5A1.86,1.86,0,0,0,253,65a2.18,2.18,0,0,0-.81-.15,1.79,1.79,0,0,0-.76.16,1.52,1.52,0,0,0-.59.5,2.51,2.51,0,0,0-.38.87,5.15,5.15,0,0,0-.13,1.26,5.93,5.93,0,0,0,.11,1.23,2.39,2.39,0,0,0,.32.81,1.23,1.23,0,0,0,.5.45A1.51,1.51,0,0,0,251.9,70.24Z" fill="#231f20"/><path d="M261.71,63.11a4.32,4.32,0,0,1,1.53.26,3.4,3.4,0,0,1,1.21.77,3.44,3.44,0,0,1,.79,1.24,4.67,4.67,0,0,1,.28,1.68,3.16,3.16,0,0,1,0,.43.78.78,0,0,1-.08.27.31.31,0,0,1-.16.14.75.75,0,0,1-.26,0h-5.2a2.74,2.74,0,0,0,.69,1.78,2.12,2.12,0,0,0,1.53.56,2.67,2.67,0,0,0,.83-.11,3.91,3.91,0,0,0,.61-.25l.48-.25a.9.9,0,0,1,.42-.11.5.5,0,0,1,.42.2l.67.84a3.65,3.65,0,0,1-.81.71,4.34,4.34,0,0,1-.92.45,4.92,4.92,0,0,1-1,.23,7.34,7.34,0,0,1-.94.06,4.74,4.74,0,0,1-1.69-.3,3.86,3.86,0,0,1-1.37-.88,4.16,4.16,0,0,1-.92-1.45,5.53,5.53,0,0,1-.34-2,4.76,4.76,0,0,1,.29-1.66,3.91,3.91,0,0,1,2.16-2.28A4.38,4.38,0,0,1,261.71,63.11Zm0,1.63a1.75,1.75,0,0,0-1.3.47,2.41,2.41,0,0,0-.61,1.34h3.61a2.42,2.42,0,0,0-.1-.69,1.61,1.61,0,0,0-.31-.58,1.49,1.49,0,0,0-.53-.4A1.81,1.81,0,0,0,261.75,64.74Z" fill="#231f20"/><path d="M267,71.91V63.25h1.43a.56.56,0,0,1,.58.4l.13.56c.15-.16.31-.3.46-.44a2.9,2.9,0,0,1,.52-.35,2.74,2.74,0,0,1,1.3-.32,2,2,0,0,1,1.32.42,2.63,2.63,0,0,1,.79,1.13A2.68,2.68,0,0,1,274,64a2.74,2.74,0,0,1,.67-.48,3.2,3.2,0,0,1,.77-.27,3.88,3.88,0,0,1,.82-.09,3.56,3.56,0,0,1,1.29.22,2.44,2.44,0,0,1,.94.64,2.87,2.87,0,0,1,.58,1,4.48,4.48,0,0,1,.2,1.39v5.5H277v-5.5q0-1.52-1.3-1.52a1.47,1.47,0,0,0-.54.1,1.23,1.23,0,0,0-.44.29,1.32,1.32,0,0,0-.29.48,1.91,1.91,0,0,0-.1.66v5.5H272v-5.5a1.7,1.7,0,0,0-.32-1.17,1.24,1.24,0,0,0-1-.35,1.6,1.6,0,0,0-.76.19,2.52,2.52,0,0,0-.67.52v6.31Z" fill="#231f20"/><path d="M284.24,74.23a.93.93,0,0,1-.26.35.82.82,0,0,1-.49.12h-1.72l1.64-3.49-3.48-8h2a.65.65,0,0,1,.43.13.74.74,0,0,1,.22.29l1.65,4.14q.18.5.3,1,.07-.25.16-.5l.18-.49,1.53-4.13a.6.6,0,0,1,.24-.3.68.68,0,0,1,.39-.12h1.86Z" fill="#231f20"/></g></g></svg>